<svg xmlns="http://www.w3.org/2000/svg" id="Capa_1" x="0" y="0" version="1.1" viewBox="0 0 512 512" width="30px" height="30px" xml:space="preserve"><path d="M475 74c-26-28-61-44-99-44-54 0-88 32-107 59-5 7-10 14-13 21-3-7-8-14-13-21-19-27-53-59-107-59-38 0-73 16-99 44-24 28-37 64-37 103 0 43 17 83 52 125 32 38 78 77 131 123l62 53h1c3 3 6 4 10 4s7-1 10-4h1l62-54c53-45 99-84 131-122 35-42 52-82 52-125 0-39-13-75-37-103zM309 402l-53 45-53-45C99 313 30 254 30 177c0-31 11-61 30-83s46-34 76-34c41 0 68 25 83 46 13 20 20 39 23 46a15 15 0 0028 0c3-7 10-26 23-46 16-21 42-46 83-46 30 0 57 12 76 34 20 22 30 52 30 83 0 77-69 136-173 225z" class="st0"/><ellipse cx="141.4" cy="170.5" class="st0" rx="118.6" ry="116.6"/><ellipse cx="370.9" cy="173.1" class="st0" rx="118.3" ry="116.6"/><ellipse cx="252.7" cy="270.9" class="st0" rx="155.7" ry="162.3"/><circle cx="105" cy="247.4" r="67.8" class="st0"/><circle cx="402.4" cy="260.7" r="67.8" class="st0"/><circle cx="260" cy="382.8" r="67.8" class="st0"/></svg>