<svg xmlns="http://www.w3.org/2000/svg" viewBox="0 0 512 512"><path d="M475 74a130 130 0 00-206 15l-13 21-13-21c-19-27-53-59-107-59-38 0-73 16-99 44-24 28-37 64-37 103 0 43 17 83 52 125 32 38 78 77 131 122l62 54h1a15 15 0 0020 0h1l62-54c53-45 99-84 131-122 35-42 52-82 52-125 0-39-13-75-37-103zM309 402l-53 45-53-45C99 313 30 254 30 177c0-31 11-61 30-83s46-34 76-34c41 0 68 25 83 46 13 19 20 39 23 46a15 15 0 0028 0c3-7 10-27 23-46 15-21 42-46 83-46 30 0 57 12 76 34s30 52 30 83c0 77-69 136-173 225z"/></svg>