<svg xmlns="http://www.w3.org/2000/svg" viewBox="0 1 511 512" width="24px" height="24px"><path d="M499 223L290 14a47 47 0 00-67 0L14 223a47 47 0 0033 80h8v154c0 30 25 55 55 55h82c8 0 15-7 15-15V376c0-13 12-25 25-25h49c13 0 25 12 25 25v121c0 8 6 15 15 15h81c31 0 56-25 56-55V303h7a47 47 0 0033-80zm-22 45c-3 3-7 5-12 5h-22c-9 0-15 7-15 15v169c0 14-12 25-26 25h-66V377c0-31-25-56-55-56h-49c-30 0-55 25-55 56v105h-67c-13 0-25-11-25-25V288c0-8-6-15-15-15H47c-4 0-8-2-12-5-6-7-6-17 0-24h1L244 35a17 17 0 0125 0l208 209c7 7 7 17 0 24zm0 0"/></svg>