<svg xmlns="http://www.w3.org/2000/svg" viewBox="0 0 512 512"><path d="M411 263v-48c0-70-46-129-110-148V45a45 45 0 00-90 0v22c-64 19-110 78-110 148v48c0 61-23 119-66 164a15 15 0 0011 25h137a75 75 0 00146 0h137a15 15 0 0011-25c-43-45-66-103-66-164zM241 45a15 15 0 0130 0v16a156 156 0 00-30 0zm15 437c-20 0-36-13-42-30h84c-6 17-22 30-42 30zM78 422c34-46 53-101 53-159v-48a125 125 0 01250 0v48c0 58 19 113 53 159zM451 215a15 15 0 0030 0c0-60-23-117-66-159a15 15 0 00-21 21c37 37 57 86 57 138zM46 230c8 0 15-7 15-15 0-52 20-101 57-138a15 15 0 10-21-21c-43 42-66 99-66 159 0 8 7 15 15 15z"/></svg>